<svg xmlns="http://www.w3.org/2000/svg" xmlns:xlink="http://www.w3.org/1999/xlink"><defs><symbol viewBox="0 0 24 22" id="basket"><path d="M.8 0a.825.825 0 000 1.65h2.55L6.1 15.03a1.017 1.017 0 00.83.92h13.35a.825.825 0 000-1.65H7.58l-.34-1.65h14.1a.837.837 0 00.78-.644l1.87-8.25a.86.86 0 00-.78-1.005H5.22l-.44-2.1A.826.826 0 004 0H.8zm4.75 4.4h4.85v2.475H6.06zm6.45 0h3.74v2.475H12V4.4zm5.34 0h4.86l-.56 2.475h-4.3V4.4zM6.4 8.525h4V11H6.91zm5.6 0h3.74V11H12V8.525zm5.34 0h3.93L20.71 11h-3.37V8.525zM9.6 16.5a2.751 2.751 0 102.67 2.75A2.727 2.727 0 009.6 16.5zm8.01 0a2.751 2.751 0 102.67 2.75 2.72 2.72 0 00-2.67-2.75zM9.6 18.15a1.1 1.1 0 11-1.07 1.1 1.073 1.073 0 011.07-1.1zm8.01 0a1.1 1.1 0 11-1.07 1.1 1.065 1.065 0 011.07-1.1z" fill-rule="evenodd" /></symbol><symbol viewBox="0 0 27.969 43" id="cat1"><path data-name="Фигура 21" d="M19.988 8.071a4.364 4.364 0 011.388.662l.683.5c.762-.795 1.714-1.953 1.714-2.782 0-1.926-1.44-2.827-3.239-3.243zm-11.617 12h3.5v-1.433h-3.5v1.433zM9.393 7.882A5.436 5.436 0 0110.479 8a6.1 6.1 0 013.49 2.223 6.1 6.1 0 013.492-2.229 5.359 5.359 0 011.138-.114l.55-4.9a22.335 22.335 0 00-2.381-.11.71.71 0 01-.7-.717V.72a.707.707 0 00-.7-.717h-2.8a.708.708 0 00-.7.717v1.433a.71.71 0 01-.7.717c-.627 0-1.3.018-1.963.073zm8.354 1.521a4.939 4.939 0 00-3.177 2.438.718.718 0 01-1.2 0 4.938 4.938 0 00-3.176-2.438 3.58 3.58 0 00-2.817.5l-1.08.664a16.17 16.17 0 001.479 6.636h4.1a1.427 1.427 0 011.408-1.433h1.381a1.426 1.426 0 011.404 1.43h4.1a16.03 16.03 0 001.472-6.516l-1.073-.785a3.589 3.589 0 00-2.816-.5M14.669 21.49v-4.281l-1.39-.009-.01 4.29 1.39.01a.011.011 0 00.01-.01m1.4-1.424h3.5v-1.433h-3.5v1.433zM6.611 8.7a4.208 4.208 0 011.388-.647l-.185-4.934c-1.984.372-3.645 1.259-3.645 3.328 0 .812.911 1.938 1.664 2.731zm19.258 27.85a.717.717 0 11.7-.717.708.708 0 01-.7.717m-1.4 2.15a.717.717 0 11.7-.717.709.709 0 01-.7.717m-1.4 2.15a.717.717 0 11.7-.717.709.709 0 01-.7.717m-1.4-2.15a.717.717 0 11.7-.717.709.709 0 01-.7.717m-1.4 2.15a.717.717 0 11.7-.717.709.709 0 01-.7.717m-1.4-2.15a.717.717 0 11.7-.717.709.709 0 01-.7.717m-1.4 2.15a.717.717 0 11.7-.717.708.708 0 01-.7.717m-1.4-2.15a.717.717 0 11.7-.717.708.708 0 01-.7.717m-1.4 2.15a.717.717 0 11.7-.717.708.708 0 01-.7.717m-1.4-2.15a.717.717 0 11.7-.717.708.708 0 01-.7.717m-1.4 2.15a.717.717 0 11.7-.717.708.708 0 01-.7.717m-1.4-2.15a.717.717 0 11.7-.717.709.709 0 01-.7.717m-1.4 2.15a.717.717 0 11.7-.717.709.709 0 01-.7.717m-1.4-2.15a.717.717 0 11.7-.717.709.709 0 01-.7.717m-1.4 2.15a.717.717 0 11.7-.717.709.709 0 01-.7.717m-1.4-2.15a.717.717 0 11.7-.717.709.709 0 01-.7.717m-1.4-2.15a.717.717 0 11.7-.717.708.708 0 01-.7.717m-1.4 2.15a.717.717 0 11.7-.717.708.708 0 01-.7.717m1.4-7.883a.717.717 0 11-.7.716.708.708 0 01.7-.716m1.4-2.15a.717.717 0 11-.7.716.708.708 0 01.7-.716m1.4-2.151a.717.717 0 11-.7.717.709.709 0 01.7-.717m1.4-2.15a.717.717 0 11-.7.717.709.709 0 01.7-.717m1.4-2.149a.717.717 0 11-.7.716.709.709 0 01.7-.716m1.4 2.149a.717.717 0 11-.7.717.71.71 0 01.7-.717m1.4 2.15a.717.717 0 11-.7.717.71.71 0 01.7-.717m1.4-2.15a.717.717 0 11-.7.717.71.71 0 01.7-.717m1.4 2.15a.717.717 0 11-.7.717.71.71 0 01.7-.717m1.4-2.15a.717.717 0 11-.7.717.71.71 0 01.7-.717m1.4-2.149a.717.717 0 11-.7.716.708.708 0 01.7-.716m1.4 2.149a.717.717 0 11-.7.717.709.709 0 01.7-.717m1.4-2.149a.717.717 0 11-.7.716.708.708 0 01.7-.716m1.4 2.149a.717.717 0 11-.7.717.71.71 0 01.7-.717m1.4 2.15a.717.717 0 11-.7.717.71.71 0 01.7-.717m0 5.734a.717.717 0 11.7-.717.709.709 0 01-.7.717m0 2.867a.717.717 0 11-.7.716.709.709 0 01.7-.716m-1.4-2.15a.717.717 0 11-.7.716.709.709 0 01.7-.716m0-4.3a.717.717 0 11-.7.716.709.709 0 01.7-.716m-1.4-.717a.717.717 0 11.7-.717.709.709 0 01-.7.717m0 4.3a.717.717 0 11.7-.717.709.709 0 01-.7.717m0 2.867a.717.717 0 11-.7.716.708.708 0 01.7-.716m-1.4-2.15a.717.717 0 11-.7.716.708.708 0 01.7-.716m0-4.3a.717.717 0 11-.7.716.708.708 0 01.7-.716m-1.4-.717a.717.717 0 11.7-.717.708.708 0 01-.7.717m0 4.3a.717.717 0 11.7-.717.708.708 0 01-.7.717m0 2.867a.717.717 0 11-.7.716.708.708 0 01.7-.716m-2.1-5.734a.7.7 0 11.7.717.708.708 0 01-.7-.717m.7 3.584a.717.717 0 11-.7.716.709.709 0 01.7-.716m-1.4-.717a.717.717 0 11.7-.717.708.708 0 01-.7.717m0 2.867a.717.717 0 11-.7.716.709.709 0 01.7-.716m-2.1-5.734a.7.7 0 11.7.717.708.708 0 01-.7-.717m.7 3.584a.717.717 0 11-.7.716.709.709 0 01.7-.716m-1.4-.717a.717.717 0 11.7-.717.708.708 0 01-.7.717m0 2.867a.717.717 0 11-.7.716.709.709 0 01.7-.716m-1.4-2.15a.717.717 0 11-.7.716.709.709 0 01.7-.716m0-4.3a.717.717 0 11-.7.716.709.709 0 01.7-.716m-1.4-.717a.717.717 0 11.7-.717.709.709 0 01-.7.717m0 4.3a.717.717 0 11.7-.717.709.709 0 01-.7.717m0 2.867a.717.717 0 11-.7.716.709.709 0 01.7-.716m-2.1-5.734a.7.7 0 11.7.717.709.709 0 01-.7-.717m.7 3.584a.717.717 0 11-.7.716.708.708 0 01.7-.716m-1.4-.717a.717.717 0 11.7-.717.709.709 0 01-.7.717m-1.4 2.15a.717.717 0 11.7-.717.709.709 0 01-.7.717m1.4.717a.717.717 0 11-.7.716.708.708 0 01.7-.716m18.2-2.15a.717.717 0 11-.7.716.709.709 0 01.7-.716m3.486 6.308c-.1-.51-2.368-11.737-7.447-17.775h-4.439a1.428 1.428 0 01-1.409 1.433h-1.38a1.427 1.427 0 01-1.411-1.433h-4.44C2.351 27.538.083 38.765-.017 39.275a.718.718 0 00.494.831c.4.118 9.934 2.894 13.491 2.894s13.087-2.776 13.49-2.894a.719.719 0 00.5-.831" fill-rule="evenodd" /></symbol><symbol viewBox="0 0 42.031 42" id="cat2"><path data-name="Фигура 23" d="M41.954 23.421l-8.5-13.941a4.83 4.83 0 01-.894 1.608 5.953 5.953 0 01-3.934 1.7h-.805a8.271 8.271 0 01-6.08-2.5.476.476 0 01-.179-.268 3.964 3.964 0 01-1.073 1.341 7.244 7.244 0 01-2.235 1.072 14.2 14.2 0 01-3.577.625 5.909 5.909 0 01-2.861-.714 4.558 4.558 0 01-1.341-1.252 9.862 9.862 0 01-1.61-2.5c-.089.268-.268.626-.357.894l-8.4 13.941a.74.74 0 00.268.983 5.732 5.732 0 004.828 1.34 1.431 1.431 0 00.626-.357c.894-1.162 4.918-6.166 6.528-9.473a.346.346 0 01.625.09c-.268 3.753-1.52 12.421-7.153 25.111-.179.358.269.715.716.626 1.967-.357 6.437-.715 14.217.268a56.409 56.409 0 0114.574-.268c.537.089.894-.268.715-.626-5.812-12.779-7.063-21.447-7.332-25.2a.347.347 0 01.626-.089c1.61 3.306 5.723 8.311 6.706 9.473a1.447 1.447 0 00.626.357 5.938 5.938 0 004.918-1.34.614.614 0 00.358-.901zm-29.149-12.69c1.341.8 3.219.357 4.828-.089a5.225 5.225 0 001.609-.715 1.94 1.94 0 00.716-1.609c.089-1.609-.984-3.128-1.163-4.736a1.513 1.513 0 01.09-.626 1.432 1.432 0 01.894-.447 19.13 19.13 0 012.235-.268 1.79 1.79 0 011.61.983 2.016 2.016 0 01-.716 1.43 3.39 3.39 0 00.269 4.379 6.592 6.592 0 005.275 1.787 4.305 4.305 0 002.683-1.072 3.274 3.274 0 00.715-2.145 6.146 6.146 0 00-.894-4.647 8.668 8.668 0 00-4.739-2.5 18.874 18.874 0 00-13.5 1.966 6.233 6.233 0 00-2.235 2.055c-.984 1.788.089 3.754 1.43 5.362a4.238 4.238 0 00.893.892z" fill-rule="evenodd" /></symbol><symbol viewBox="0 0 38 36" id="cat3"><path data-name="Фигура 22" d="M36.523 19.547c-.885-6.237-4.344-13.939-4.47-14.274a1.018 1.018 0 00-.422-.418l-6.537-2.972a8.6 8.6 0 011.813 4.353c.127 2.051-.463 2.554-1.012 2.6h-.042a2.151 2.151 0 01-1.012-.334 3.848 3.848 0 011.181 3.892c-.464 1.424-1.687 2.93-2.952 5.233a23.718 23.718 0 00-2.067 5.19 49.878 49.878 0 00-1.139 4.939v6.572a23.12 23.12 0 006.326 1.3c3.037 0 3.374-1.716 3.374-2.47a20.2 20.2 0 00-1.054-5.776 10.608 10.608 0 01-.59-2.721 40.822 40.822 0 011.054-5.358c.295 1.256.633 2.93.97 4.9a98.985 98.985 0 01.97 11.008.754.754 0 00.253.586.7.7 0 00.633.21l5.4-.293a.872.872 0 00.8-.879c-.3-4.781-.549-8.925-1.477-15.288zM14.761 2.008c0 .126-.042.21-.042.335a3.687 3.687 0 00-.084.712 14.476 14.476 0 00.379 5.442 97.389 97.389 0 001.687 5.441c1.181 3.516 2.362 6.614 2.362 6.614s1.139-3.1 2.32-6.614c.59-1.842 1.223-3.767 1.687-5.441A15.7 15.7 0 0022.859.25a3.858 3.858 0 00-1.35-.251h-5.061a3.105 3.105 0 00-1.265.251c-.127.461-.295 1.05-.422 1.758zm2.151 26.832a1.3 1.3 0 111.1-2.009 56.216 56.216 0 00-1.013-4.1c-1.56-5.65-4.3-8.12-5.018-10.422a3.691 3.691 0 011.1-3.809 2.126 2.126 0 01-.843.293h-.169c-.59 0-1.223-.5-1.054-2.6a8.755 8.755 0 011.813-4.353l-6.5 3.014a1.016 1.016 0 00-.421.418c-.127.335-3.585 8.037-4.513 14.274C.508 25.909.255 30.053.002 34.783a.842.842 0 00.8.879l5.4.293h.042a1.007 1.007 0 00.59-.21.82.82 0 00.253-.586 99 99 0 01.97-11.008c.3-1.968.675-3.642.97-4.9a34.688 34.688 0 011.055 5.358 10.318 10.318 0 01-.591 2.679 20.209 20.209 0 00-1.054 5.777c0 .753.337 2.469 3.374 2.469a23.15 23.15 0 006.326-1.3v-6.2a1.286 1.286 0 01-1.225.806z" fill-rule="evenodd" /></symbol><symbol viewBox="0 0 29.03 42" id="cat4"><path data-name="Фигура 24" d="M26.91 29.462a30.434 30.434 0 01-1.61-5.2 30.159 30.159 0 01-10.78 2.4 31.5 31.5 0 01-10.84-2.313 31.108 31.108 0 01-1.7 5.207c6.97 4.123 18.01 4.063 24.93-.094zM4.53 17.13a33.272 33.272 0 01-.51 5.511c5.87 2.565 15.16 2.523 20.96-.1a34.485 34.485 0 01-.42-5.424 35.142 35.142 0 01-10.04 1.535 35.705 35.705 0 01-9.99-1.522zm23.71 15.947c-.19-.646-.43-1.325-.7-2.015a27.887 27.887 0 01-13.02 3.646A28.816 28.816 0 011.33 31.15a19.755 19.755 0 00-.67 1.927 22.6 22.6 0 00-.52 8.186.841.841 0 00.84.737h27.14a.851.851 0 00.84-.78 25.97 25.97 0 00-.72-8.143zM4.1 15.148c5.66 2.365 15.3 2.372 20.91-.031l.06-.117a6.28 6.28 0 00-4.11-9.5c-.09-.015-.17-.021-.25-.032V.854a.845.845 0 10-1.69 0v4.6a6.035 6.035 0 00-2.95 1.268 2.144 2.144 0 01-1.31.5 3.211 3.211 0 01-1.87-.608 6.013 6.013 0 00-2.82-1.164V.845a.845.845 0 10-1.69 0v4.608c-.08.011-.16.016-.23.029a6.212 6.212 0 00-5.03 5.289 6.277 6.277 0 00.9 4.217c.03.061.05.112.08.16z" fill-rule="evenodd" /></symbol><symbol viewBox="0 0 36.91 44.968" id="cat5"><path data-name="Фигура 25" d="M15.5 34.231l18.31-7.676 3.09 6.353-12.91 6.063zM3.59.002a20.419 20.419 0 00-1.28 2.129 32.029 32.029 0 0020.8 0A20.419 20.419 0 0021.83.002a29.281 29.281 0 01-18.24 0zm9.1 1.853a.835.835 0 01.88.781.028.028 0 01.01.025.84.84 0 01-.87.8.829.829 0 01-.86-.8.834.834 0 01.84-.806zm8.01 2.664l2.57 3.016a17.5 17.5 0 01.39 3.054l-4.83-5.673a33.866 33.866 0 01-5.26.545v4.447a2.248 2.248 0 01-1.73 2.136V5.46a34 34 0 01-5.26-.545l-4.83 5.674a18.522 18.522 0 01.4-3.054l2.57-3.017a32.99 32.99 0 01-3.11-.916A19.859 19.859 0 00.48 15.721a56.741 56.741 0 011.12 17.9L.5 44.953h7.86l4.01-27.577a.347.347 0 01.68 0l2.21 15.189 8.3-3.48a57.315 57.315 0 011.37-13.369 19.779 19.779 0 00-1.12-12.118 33.58 33.58 0 01-3.11.916z" fill-rule="evenodd" /></symbol><symbol viewBox="0 0 42 32" id="cat6"><path data-name="Фигура 26" d="M28.06.016a.894.894 0 00-.95.755 6.166 6.166 0 01-12.19.02.908.908 0 00-.95-.775H8.84l-.85 30.919a1.086 1.086 0 00.27.736 1.047 1.047 0 00.69.33h24.12a1.1 1.1 0 00.7-.366.914.914 0 00.27-.662L33.2.016h-5.14zM0 3.208v8.217a1.016 1.016 0 00.48.786 1.033 1.033 0 00.92.109L7 10.242V0L.69 2.307a1.015 1.015 0 00-.69.901zm41.32-.9L35 0v10.239l5.59 2.081a1.071 1.071 0 00.94-.109 1.011 1.011 0 00.47-.786V3.208a1 1 0 00-.68-.897z" fill-rule="evenodd" /></symbol><symbol viewBox="0 0 19 19" id="search"><path d="M13.15 8.038a5.124 5.124 0 10-1.5 3.614 4.929 4.929 0 001.5-3.614zm5.85 9.5a1.4 1.4 0 01-.43 1.027 1.42 1.42 0 01-1.03.434 1.357 1.357 0 01-1.03-.434l-3.92-3.9a8.01 8.01 0 01-7.67.782 7.977 7.977 0 01-2.57-1.713 8.175 8.175 0 01-1.72-2.569 8.056 8.056 0 010-6.246A8.171 8.171 0 012.35 2.35 7.983 7.983 0 014.92.637a8 8 0 016.24 0 8.093 8.093 0 012.57 1.713 7.98 7.98 0 011.71 2.569 7.987 7.987 0 01-.78 7.679l3.92 3.916a1.4 1.4 0 01.42 1.028z" fill-rule="evenodd" /></symbol></defs></svg>