<svg xmlns="http://www.w3.org/2000/svg" width="24" height="22" viewBox="0 0 24 22">
  <defs>
    <style>
      .cls-1 {
        fill-rule: evenodd;
      }
    </style>
  </defs>
  <path id="basket" class="cls-1" d="M1763.8,27a0.825,0.825,0,0,0,0,1.65h2.55l2.75,13.38a1.017,1.017,0,0,0,.83.92h13.35a0.825,0.825,0,0,0,0-1.65h-12.7l-0.34-1.65h14.1a0.837,0.837,0,0,0,.78-0.644l1.87-8.25a0.86,0.86,0,0,0-.78-1.005h-17.99l-0.44-2.1A0.826,0.826,0,0,0,1767,27h-3.2Zm4.75,4.4h4.85v2.475h-4.34Zm6.45,0h3.74v2.475H1775V31.4Zm5.34,0h4.86l-0.56,2.475h-4.3V31.4Zm-10.94,4.125h4V38h-3.49Zm5.6,0h3.74V38H1775V35.525Zm5.34,0h3.93L1783.71,38h-3.37V35.525ZM1772.6,43.5a2.751,2.751,0,1,0,2.67,2.75A2.727,2.727,0,0,0,1772.6,43.5Zm8.01,0a2.751,2.751,0,1,0,2.67,2.75A2.72,2.72,0,0,0,1780.61,43.5Zm-8.01,1.65a1.1,1.1,0,1,1-1.07,1.1A1.073,1.073,0,0,1,1772.6,45.15Zm8.01,0a1.1,1.1,0,1,1-1.07,1.1A1.065,1.065,0,0,1,1780.61,45.15Z" transform="translate(-1763 -27)"/>
</svg>
