<svg xmlns="http://www.w3.org/2000/svg" width="27.969" height="43" viewBox="0 0 27.969 43">
  <defs>
    <style>
      .cls-1 {
        fill: #fff;
        fill-rule: evenodd;
      }
    </style>
  </defs>
  <path id="Фигура_21" data-name="Фигура 21" class="cls-1" d="M276.019,640.071a4.364,4.364,0,0,1,1.388.662l0.683,0.5c0.762-.795,1.714-1.953,1.714-2.782,0-1.926-1.44-2.827-3.239-3.243Zm-11.617,12h3.5v-1.433h-3.5v1.433Zm1.022-12.189a5.436,5.436,0,0,1,1.086.118A6.1,6.1,0,0,1,270,642.223a6.1,6.1,0,0,1,3.492-2.229,5.359,5.359,0,0,1,1.138-.114l0.55-4.9a22.335,22.335,0,0,0-2.381-.11,0.71,0.71,0,0,1-.7-0.717v-1.433a0.707,0.707,0,0,0-.7-0.717h-2.8a0.708,0.708,0,0,0-.7.717v1.433a0.71,0.71,0,0,1-.7.717c-0.627,0-1.3.018-1.963,0.073Zm8.354,1.521a4.939,4.939,0,0,0-3.177,2.438,0.718,0.718,0,0,1-1.2,0,4.938,4.938,0,0,0-3.176-2.438,3.58,3.58,0,0,0-2.817.5l-1.08.664a16.17,16.17,0,0,0,1.479,6.636h4.1a1.427,1.427,0,0,1,1.408-1.433h1.381A1.426,1.426,0,0,1,272.1,649.2H276.2a16.03,16.03,0,0,0,1.472-6.516l-1.073-.785a3.589,3.589,0,0,0-2.816-.5M270.7,653.49v-4.281l-1.39-.009-0.01,4.29,1.39,0.01a0.011,0.011,0,0,0,.01-0.01m1.4-1.424h3.5v-1.433h-3.5v1.433ZM262.642,640.7a4.208,4.208,0,0,1,1.388-.647l-0.185-4.934c-1.984.372-3.645,1.259-3.645,3.328,0,0.812.911,1.938,1.664,2.731ZM281.9,668.55a0.717,0.717,0,1,1,.7-0.717,0.708,0.708,0,0,1-.7.717m-1.4,2.15a0.717,0.717,0,1,1,.7-0.717,0.709,0.709,0,0,1-.7.717m-1.4,2.15a0.717,0.717,0,1,1,.7-0.717,0.709,0.709,0,0,1-.7.717m-1.4-2.15a0.717,0.717,0,1,1,.7-0.717,0.709,0.709,0,0,1-.7.717m-1.4,2.15a0.717,0.717,0,1,1,.7-0.717,0.709,0.709,0,0,1-.7.717m-1.4-2.15a0.717,0.717,0,1,1,.7-0.717,0.709,0.709,0,0,1-.7.717m-1.4,2.15a0.717,0.717,0,1,1,.7-0.717,0.708,0.708,0,0,1-.7.717m-1.4-2.15a0.717,0.717,0,1,1,.7-0.717,0.708,0.708,0,0,1-.7.717m-1.4,2.15a0.717,0.717,0,1,1,.7-0.717,0.708,0.708,0,0,1-.7.717m-1.4-2.15a0.717,0.717,0,1,1,.7-0.717,0.708,0.708,0,0,1-.7.717m-1.4,2.15a0.717,0.717,0,1,1,.7-0.717,0.708,0.708,0,0,1-.7.717m-1.4-2.15a0.717,0.717,0,1,1,.7-0.717,0.709,0.709,0,0,1-.7.717m-1.4,2.15a0.717,0.717,0,1,1,.7-0.717,0.709,0.709,0,0,1-.7.717m-1.4-2.15a0.717,0.717,0,1,1,.7-0.717,0.709,0.709,0,0,1-.7.717m-1.4,2.15a0.717,0.717,0,1,1,.7-0.717,0.709,0.709,0,0,1-.7.717m-1.4-2.15a0.717,0.717,0,1,1,.7-0.717,0.709,0.709,0,0,1-.7.717m-1.4-2.15a0.717,0.717,0,1,1,.7-0.717,0.708,0.708,0,0,1-.7.717m-1.4,2.15a0.717,0.717,0,1,1,.7-0.717,0.708,0.708,0,0,1-.7.717m1.4-7.883a0.717,0.717,0,1,1-.7.716,0.708,0.708,0,0,1,.7-0.716m1.4-2.15a0.717,0.717,0,1,1-.7.716,0.708,0.708,0,0,1,.7-0.716m1.4-2.151a0.717,0.717,0,1,1-.7.717,0.709,0.709,0,0,1,.7-0.717m1.4-2.15a0.717,0.717,0,1,1-.7.717,0.709,0.709,0,0,1,.7-0.717m1.4-2.149a0.717,0.717,0,1,1-.7.716,0.709,0.709,0,0,1,.7-0.716m1.4,2.149a0.717,0.717,0,1,1-.7.717,0.71,0.71,0,0,1,.7-0.717m1.4,2.15a0.717,0.717,0,1,1-.7.717,0.71,0.71,0,0,1,.7-0.717m1.4-2.15a0.717,0.717,0,1,1-.7.717,0.71,0.71,0,0,1,.7-0.717m1.4,2.15a0.717,0.717,0,1,1-.7.717,0.71,0.71,0,0,1,.7-0.717m1.4-2.15a0.717,0.717,0,1,1-.7.717,0.71,0.71,0,0,1,.7-0.717m1.4-2.149a0.717,0.717,0,1,1-.7.716,0.708,0.708,0,0,1,.7-0.716m1.4,2.149a0.717,0.717,0,1,1-.7.717,0.709,0.709,0,0,1,.7-0.717m1.4-2.149a0.717,0.717,0,1,1-.7.716,0.708,0.708,0,0,1,.7-0.716m1.4,2.149a0.717,0.717,0,1,1-.7.717,0.71,0.71,0,0,1,.7-0.717m1.4,2.15a0.717,0.717,0,1,1-.7.717,0.71,0.71,0,0,1,.7-0.717m0,5.734a0.717,0.717,0,1,1,.7-0.717,0.709,0.709,0,0,1-.7.717m0,2.867a0.717,0.717,0,1,1-.7.716,0.709,0.709,0,0,1,.7-0.716m-1.4-2.15a0.717,0.717,0,1,1-.7.716,0.709,0.709,0,0,1,.7-0.716m0-4.3a0.717,0.717,0,1,1-.7.716,0.709,0.709,0,0,1,.7-0.716m-1.4-.717a0.717,0.717,0,1,1,.7-0.717,0.709,0.709,0,0,1-.7.717m0,4.3a0.717,0.717,0,1,1,.7-0.717,0.709,0.709,0,0,1-.7.717m0,2.867a0.717,0.717,0,1,1-.7.716,0.708,0.708,0,0,1,.7-0.716m-1.4-2.15a0.717,0.717,0,1,1-.7.716,0.708,0.708,0,0,1,.7-0.716m0-4.3a0.717,0.717,0,1,1-.7.716,0.708,0.708,0,0,1,.7-0.716m-1.4-.717a0.717,0.717,0,1,1,.7-0.717,0.708,0.708,0,0,1-.7.717m0,4.3a0.717,0.717,0,1,1,.7-0.717,0.708,0.708,0,0,1-.7.717m0,2.867a0.717,0.717,0,1,1-.7.716,0.708,0.708,0,0,1,.7-0.716m-2.1-5.734a0.7,0.7,0,1,1,.7.717,0.708,0.708,0,0,1-.7-0.717m0.7,3.584a0.717,0.717,0,1,1-.7.716,0.709,0.709,0,0,1,.7-0.716m-1.4-.717a0.717,0.717,0,1,1,.7-0.717,0.708,0.708,0,0,1-.7.717m0,2.867a0.717,0.717,0,1,1-.7.716,0.709,0.709,0,0,1,.7-0.716m-2.1-5.734a0.7,0.7,0,1,1,.7.717,0.708,0.708,0,0,1-.7-0.717m0.7,3.584a0.717,0.717,0,1,1-.7.716,0.709,0.709,0,0,1,.7-0.716m-1.4-.717a0.717,0.717,0,1,1,.7-0.717,0.708,0.708,0,0,1-.7.717m0,2.867a0.717,0.717,0,1,1-.7.716,0.709,0.709,0,0,1,.7-0.716m-1.4-2.15a0.717,0.717,0,1,1-.7.716,0.709,0.709,0,0,1,.7-0.716m0-4.3a0.717,0.717,0,1,1-.7.716,0.709,0.709,0,0,1,.7-0.716m-1.4-.717a0.717,0.717,0,1,1,.7-0.717,0.709,0.709,0,0,1-.7.717m0,4.3a0.717,0.717,0,1,1,.7-0.717,0.709,0.709,0,0,1-.7.717m0,2.867a0.717,0.717,0,1,1-.7.716,0.709,0.709,0,0,1,.7-0.716m-2.1-5.734a0.7,0.7,0,1,1,.7.717,0.709,0.709,0,0,1-.7-0.717m0.7,3.584a0.717,0.717,0,1,1-.7.716,0.708,0.708,0,0,1,.7-0.716m-1.4-.717a0.717,0.717,0,1,1,.7-0.717,0.709,0.709,0,0,1-.7.717m-1.4,2.15a0.717,0.717,0,1,1,.7-0.717,0.709,0.709,0,0,1-.7.717m1.4,0.717a0.717,0.717,0,1,1-.7.716,0.708,0.708,0,0,1,.7-0.716m18.2-2.15a0.717,0.717,0,1,1-.7.716,0.709,0.709,0,0,1,.7-0.716m3.486,6.308c-0.1-.51-2.368-11.737-7.447-17.775H272.1a1.428,1.428,0,0,1-1.409,1.433h-1.38A1.427,1.427,0,0,1,267.9,653.5h-4.44c-5.078,6.038-7.346,17.265-7.446,17.775a0.718,0.718,0,0,0,.494.831c0.4,0.118,9.934,2.894,13.491,2.894s13.087-2.776,13.49-2.894a0.719,0.719,0,0,0,.5-0.831" transform="translate(-256.031 -632)"/>
</svg>
