<svg xmlns="http://www.w3.org/2000/svg" width="42.031" height="42" viewBox="0 0 42.031 42">
  <defs>
    <style>
      .cls-1 {
        fill: #fff;
        fill-rule: evenodd;
      }
    </style>
  </defs>
  <path id="Фигура_23" data-name="Фигура 23" class="cls-1" d="M570.923,655.421l-8.5-13.941h0a4.83,4.83,0,0,1-.894,1.608,5.953,5.953,0,0,1-3.934,1.7h-0.805a8.271,8.271,0,0,1-6.08-2.5,0.476,0.476,0,0,1-.179-0.268,3.964,3.964,0,0,1-1.073,1.341,7.244,7.244,0,0,1-2.235,1.072,14.2,14.2,0,0,1-3.577.625,5.909,5.909,0,0,1-2.861-.714,4.558,4.558,0,0,1-1.341-1.252,9.862,9.862,0,0,1-1.61-2.5c-0.089.268-.268,0.626-0.357,0.894l-8.4,13.941a0.74,0.74,0,0,0,.268.983,5.732,5.732,0,0,0,4.828,1.34,1.431,1.431,0,0,0,.626-0.357c0.894-1.162,4.918-6.166,6.528-9.473a0.346,0.346,0,0,1,.625.09c-0.268,3.753-1.52,12.421-7.153,25.111-0.179.358,0.269,0.715,0.716,0.626,1.967-.357,6.437-0.715,14.217.268h0a56.409,56.409,0,0,1,14.574-.268c0.537,0.089.894-.268,0.715-0.626-5.812-12.779-7.063-21.447-7.332-25.2a0.347,0.347,0,0,1,.626-0.089c1.61,3.306,5.723,8.311,6.706,9.473a1.447,1.447,0,0,0,.626.357,5.938,5.938,0,0,0,4.918-1.34A0.614,0.614,0,0,0,570.923,655.421Zm-29.149-12.69c1.341,0.8,3.219.357,4.828-.089a5.225,5.225,0,0,0,1.609-.715,1.94,1.94,0,0,0,.716-1.609c0.089-1.609-.984-3.128-1.163-4.736a1.513,1.513,0,0,1,.09-0.626,1.432,1.432,0,0,1,.894-0.447,19.13,19.13,0,0,1,2.235-.268,1.79,1.79,0,0,1,1.61.983,2.016,2.016,0,0,1-.716,1.43,3.39,3.39,0,0,0,.269,4.379,6.592,6.592,0,0,0,5.275,1.787,4.305,4.305,0,0,0,2.683-1.072,3.274,3.274,0,0,0,.715-2.145,6.146,6.146,0,0,0-.894-4.647,8.668,8.668,0,0,0-4.739-2.5,18.874,18.874,0,0,0-13.5,1.966,6.233,6.233,0,0,0-2.235,2.055c-0.984,1.788.089,3.754,1.43,5.362A4.238,4.238,0,0,0,541.774,642.731Z" transform="translate(-528.969 -632)"/>
</svg>
