<svg xmlns="http://www.w3.org/2000/svg" width="38" height="36" viewBox="0 0 38 36">
  <defs>
    <style>
      .cls-1 {
        fill: #fff;
        fill-rule: evenodd;
      }
    </style>
  </defs>
  <path id="Фигура_22" data-name="Фигура 22" class="cls-1" d="M847.523,658.547c-0.885-6.237-4.344-13.939-4.47-14.274a1.018,1.018,0,0,0-.422-0.418l-6.537-2.972a8.6,8.6,0,0,1,1.813,4.353c0.127,2.051-.463,2.554-1.012,2.6h-0.042a2.151,2.151,0,0,1-1.012-.334,3.848,3.848,0,0,1,1.181,3.892c-0.464,1.424-1.687,2.93-2.952,5.233a23.718,23.718,0,0,0-2.067,5.19,49.878,49.878,0,0,0-1.139,4.939v6.572a23.12,23.12,0,0,0,6.326,1.3c3.037,0,3.374-1.716,3.374-2.47a20.2,20.2,0,0,0-1.054-5.776,10.608,10.608,0,0,1-.59-2.721,40.822,40.822,0,0,1,1.054-5.358c0.295,1.256.633,2.93,0.97,4.9a98.985,98.985,0,0,1,.97,11.008,0.754,0.754,0,0,0,.253.586,0.7,0.7,0,0,0,.633.21l5.4-.293a0.872,0.872,0,0,0,.8-0.879C848.7,669.054,848.451,664.91,847.523,658.547Zm-21.762-17.539c0,0.126-.042.21-0.042,0.335a3.687,3.687,0,0,0-.084.712,14.476,14.476,0,0,0,.379,5.442c0.464,1.674,1.055,3.6,1.687,5.441,1.181,3.516,2.362,6.614,2.362,6.614s1.139-3.1,2.32-6.614c0.59-1.842,1.223-3.767,1.687-5.441a15.7,15.7,0,0,0-.211-8.247,3.858,3.858,0,0,0-1.35-.251h-5.061a3.105,3.105,0,0,0-1.265.251C826.056,639.711,825.888,640.3,825.761,641.008Zm2.151,26.832a1.3,1.3,0,1,1,1.1-2.009c-0.253-1.256-.591-2.6-1.013-4.1-1.56-5.65-4.3-8.12-5.018-10.422a3.691,3.691,0,0,1,1.1-3.809,2.126,2.126,0,0,1-.843.293h-0.169c-0.59,0-1.223-.5-1.054-2.6a8.755,8.755,0,0,1,1.813-4.353l-6.5,3.014a1.016,1.016,0,0,0-.421.418c-0.127.335-3.585,8.037-4.513,14.274-0.886,6.363-1.139,10.507-1.392,15.237a0.842,0.842,0,0,0,.8.879l5.4,0.293h0.042a1.007,1.007,0,0,0,.59-0.21,0.82,0.82,0,0,0,.253-0.586,99,99,0,0,1,.97-11.008c0.3-1.968.675-3.642,0.97-4.9a34.688,34.688,0,0,1,1.055,5.358,10.318,10.318,0,0,1-.591,2.679,20.209,20.209,0,0,0-1.054,5.777c0,0.753.337,2.469,3.374,2.469a23.15,23.15,0,0,0,6.326-1.3v-6.2A1.286,1.286,0,0,1,827.912,667.84Z" transform="translate(-811 -639)"/>
</svg>
