<svg xmlns="http://www.w3.org/2000/svg" width="29.03" height="42" viewBox="0 0 29.03 42">
  <defs>
    <style>
      .cls-1 {
        fill: #fff;
        fill-rule: evenodd;
      }
    </style>
  </defs>
  <path id="Фигура_24" data-name="Фигура 24" class="cls-1" d="M1119.91,660.462a30.434,30.434,0,0,1-1.61-5.2,30.159,30.159,0,0,1-10.78,2.4,31.5,31.5,0,0,1-10.84-2.313,31.108,31.108,0,0,1-1.7,5.207C1101.95,664.679,1112.99,664.619,1119.91,660.462Zm-22.38-12.332a33.272,33.272,0,0,1-.51,5.511c5.87,2.565,15.16,2.523,20.96-.1a34.485,34.485,0,0,1-.42-5.424,35.142,35.142,0,0,1-10.04,1.535A35.705,35.705,0,0,1,1097.53,648.13Zm23.71,15.947c-0.19-.646-0.43-1.325-0.7-2.015a27.887,27.887,0,0,1-13.02,3.646,28.816,28.816,0,0,1-13.19-3.558,19.755,19.755,0,0,0-.67,1.927,22.6,22.6,0,0,0-.52,8.186,0.841,0.841,0,0,0,.84.737h27.14a0.851,0.851,0,0,0,.84-0.78A25.97,25.97,0,0,0,1121.24,664.077Zm-24.14-17.929c5.66,2.365,15.3,2.372,20.91-.031l0.06-.117a6.28,6.28,0,0,0-4.11-9.5c-0.09-.015-0.17-0.021-0.25-0.032v-4.614a0.845,0.845,0,1,0-1.69,0v4.6a6.035,6.035,0,0,0-2.95,1.268,2.144,2.144,0,0,1-1.31.5,3.211,3.211,0,0,1-1.87-.608,6.013,6.013,0,0,0-2.82-1.164v-4.605a0.845,0.845,0,1,0-1.69,0v4.608c-0.08.011-.16,0.016-0.23,0.029a6.212,6.212,0,0,0-5.03,5.289,6.277,6.277,0,0,0,.9,4.217C1097.05,646.049,1097.07,646.1,1097.1,646.148Z" transform="translate(-1093 -631)"/>
</svg>
