<svg xmlns="http://www.w3.org/2000/svg" width="36.91" height="44.968" viewBox="0 0 36.91 44.968">
  <defs>
    <style>
      .cls-1 {
        fill: #fff;
        fill-rule: evenodd;
      }
    </style>
  </defs>
  <path id="Фигура_25" data-name="Фигура 25" class="cls-1" d="M1391.56,667.294l18.31-7.676,3.09,6.353-12.91,6.063Zm-11.91-34.229a20.419,20.419,0,0,0-1.28,2.129,32.029,32.029,0,0,0,20.8,0,20.419,20.419,0,0,0-1.28-2.129A29.281,29.281,0,0,1,1379.65,633.065Zm9.1,1.853a0.835,0.835,0,0,1,.88.781,0.028,0.028,0,0,1,.01.025,0.84,0.84,0,0,1-.87.8,0.829,0.829,0,0,1-.86-0.8h0A0.834,0.834,0,0,1,1388.75,634.918Zm8.01,2.664,2.57,3.016a17.5,17.5,0,0,1,.39,3.054l-4.83-5.673a33.866,33.866,0,0,1-5.26.545v4.447a2.248,2.248,0,0,1-1.73,2.136v-6.584a34,34,0,0,1-5.26-.545l-4.83,5.674a18.522,18.522,0,0,1,.4-3.054l2.57-3.017c-1.06-.256-2.09-0.561-3.11-0.916a19.859,19.859,0,0,0-1.13,12.119,56.741,56.741,0,0,1,1.12,17.9l-1.1,11.332h7.86l4.01-27.577a0.347,0.347,0,0,1,.68,0l2.21,15.189,8.3-3.48a57.315,57.315,0,0,1,1.37-13.369,19.779,19.779,0,0,0-1.12-12.118c-1.02.355-2.06,0.661-3.11,0.916h0Z" transform="translate(-1376.06 -633.063)"/>
</svg>
