<svg xmlns="http://www.w3.org/2000/svg" width="42" height="32" viewBox="0 0 42 32">
  <defs>
    <style>
      .cls-1 {
        fill: #fff;
        fill-rule: evenodd;
      }
    </style>
  </defs>
  <path id="Фигура_26" data-name="Фигура 26" class="cls-1" d="M1673.06,638.016a0.894,0.894,0,0,0-.95.755,6.166,6.166,0,0,1-12.19.02,0.908,0.908,0,0,0-.95-0.775h-5.13l-0.85,30.919a1.086,1.086,0,0,0,.27.736,1.047,1.047,0,0,0,.69.33h24.12a1.1,1.1,0,0,0,.7-0.366,0.914,0.914,0,0,0,.27-0.662l-0.84-30.957h-5.14ZM1645,641.208v8.217a1.016,1.016,0,0,0,.48.786,1.033,1.033,0,0,0,.92.109l5.6-2.078V638l-6.31,2.307A1.015,1.015,0,0,0,1645,641.208Zm41.32-.9L1680,638v10.239l5.59,2.081a1.071,1.071,0,0,0,.94-0.109,1.011,1.011,0,0,0,.47-0.786v-8.217A1,1,0,0,0,1686.32,640.311Z" transform="translate(-1645 -638)"/>
</svg>
