<svg xmlns="http://www.w3.org/2000/svg" width="19" height="19" viewBox="0 0 19 19">
  <defs>
    <style>
      .cls-1 {
        fill-rule: evenodd;
      }
    </style>
  </defs>
  <path id="search" class="cls-1" d="M1705.15,37.038a5.124,5.124,0,1,0-1.5,3.614,4.929,4.929,0,0,0,1.5-3.614h0Zm5.85,9.5a1.4,1.4,0,0,1-.43,1.027,1.42,1.42,0,0,1-1.03.434,1.357,1.357,0,0,1-1.03-.434l-3.92-3.9a8.01,8.01,0,0,1-7.67.782,7.977,7.977,0,0,1-2.57-1.713,8.175,8.175,0,0,1-1.72-2.569,8.056,8.056,0,0,1,0-6.246,8.171,8.171,0,0,1,1.72-2.569,7.983,7.983,0,0,1,2.57-1.713,8,8,0,0,1,6.24,0,8.093,8.093,0,0,1,2.57,1.713,7.98,7.98,0,0,1,1.71,2.569,7.987,7.987,0,0,1-.78,7.679l3.92,3.916a1.4,1.4,0,0,1,.42,1.028h0Z" transform="translate(-1692 -29)"/>
</svg>
